<?xml version="1.0" encoding="UTF-8"?>
<svg width="66px" height="31px" viewBox="0 0 66 31" version="1.1" xmlns="http://www.w3.org/2000/svg" xmlns:xlink="http://www.w3.org/1999/xlink">
    <!-- Generator: Sketch 52.2 (67145) - http://www.bohemiancoding.com/sketch -->
    <title>Logo</title>
    <desc>Created with Sketch.</desc>
    <g id="Website" stroke="none" stroke-width="1" fill="none" fill-rule="evenodd">
        <g id="Halo-Industries" transform="translate(-223.000000, -51.000000)">
            <g id="Hero">
                <g id="Logo" transform="translate(223.000000, 51.000000)">
                    <polygon id="Path" fill="#FFFFFF" points="3.56644218 16.6041774 3.56644218 30 0 30 0 0 3.56644218 0 3.56644218 13.3952053 11.4323259 13.3952053 11.4323259 0 15 0 15 30 11.4323259 30 11.4323259 16.6041774"></polygon>
                    <path d="M54.5976838,8.04551269 C54.5976838,5.09725384 55.8596425,3.32098932 58.476712,3.32098932 C61.1403575,3.32098932 62.3557402,5.09725384 62.3557402,8.04551269 L62.3557402,13.9993699 L66,13.9993699 L66,8.23328382 C66,3.19748884 63.4937059,-0.0380976479 58.3854481,0.000338725169 C54.2578046,0.0324740535 51,3.55538819 51,7.68761335 L51,14 L54.5976838,14 L54.5976838,8.04551269 Z" id="Path" fill="#3FBBEC"></path>
                    <path d="M62.3551108,22.9539071 C62.3551108,25.9485056 61.1403575,27.6796003 58.476712,27.6796003 C55.8609013,27.6796003 54.5976838,25.9485056 54.5976838,22.9539071 L54.5976838,17 L51,17 L51,22.7661145 C51,27.7262333 53.4773414,31 58.476712,31 C63.5245468,31 66,27.7262333 66,22.7661145 L66,17 L62.3551108,17 L62.3551108,22.9539071 Z" id="Path" fill="#FFFFFF"></path>
                    <path d="M27.3854481,0.000350313667 C23.258434,0.0325397086 20,3.56138103 20,7.70055852 L20,14.0235656 L20,17.303728 L20,30.9993688 L23.5983132,30.9993688 L23.5983132,17.3043592 L31.3557402,17.3043592 L31.3557402,31 L35,31 L35,17.3043592 L35,14.0241967 L35,8.2484094 C35,3.2035107 32.4937059,-0.038781892 27.3854481,0.000350313667 Z M23.5989426,14.0235656 L23.5989426,8.06032235 C23.5989426,5.10836548 24.8596425,3.32785012 27.476712,3.32785012 C30.1416163,3.32785012 31.3563696,5.10836548 31.3563696,8.06032235 L31.3563696,14.0241967 L23.5989426,14.0241967 L23.5989426,14.0235656 Z" id="Shape" fill="#FFFFFF" fill-rule="nonzero"></path>
                    <path d="M48,27.673026 L46.7974619,27.673026 C44.0681205,27.673026 42.7526803,25.9391619 42.7526803,22.9397728 L42.7526803,0 L39,0 L39,22.7516798 C39,27.7197337 41.5829626,31 46.7974619,31 L48,31 L48,27.673026 Z" id="Path" fill="#FFFFFF"></path>
                </g>
            </g>
        </g>
    </g>
</svg>