<?xml version="1.0" encoding="utf-8"?>
<!-- Generator: Adobe Illustrator 20.1.0, SVG Export Plug-In . SVG Version: 6.00 Build 0)  -->
<svg version="1.1" id="Livello_1" xmlns="http://www.w3.org/2000/svg" xmlns:xlink="http://www.w3.org/1999/xlink" x="0px" y="0px"
	 viewBox="0 0 2170 290" style="enable-background:new 0 0 2170 290;" xml:space="preserve">
<style type="text/css">
	.st0{fill:#353535;}
	.st1{fill:#DD4A5F;}
</style>
<g>
	<g>
		<polygon class="st0" points="32.8,31.8 3,31.8 3,259.7 116.1,259.7 116.1,233.5 32.8,233.5 		"/>
	</g>
	<g>
		<polygon class="st0" points="889.1,259.7 919.2,259.7 919.2,57.9 979.6,57.9 979.6,31.8 828.3,31.8 828.3,57.9 889.1,57.9 		"/>
	</g>
	<g>
		<polygon class="st1" points="1060.3,132.6 1060.3,31.8 1030.4,31.8 1030.4,259.7 1060.3,259.7 1060.3,158.8 1153.4,158.8 
			1153.4,259.7 1182.9,259.7 1182.9,132.6 		"/>
	</g>
	<g>
		<polygon class="st0" points="580.8,31.8 512.4,200.2 512.3,200.2 512.3,200.1 445.3,31.8 414.3,31.8 505.3,259.7 519.4,259.7 
			611.9,31.8 		"/>
	</g>
	<g>
		<path class="st0" d="M267.8,31.8c-62.9,0-114,51-114,114s51,114,114,114c62.9,0,114-51,114-114C381.7,82.8,330.7,31.8,267.8,31.8z
			 M267.8,233.5c-48.5,0-87.8-39.3-87.8-87.8s39.3-87.8,87.8-87.8c48.5,0,87.8,39.3,87.8,87.8C355.6,194.2,316.3,233.5,267.8,233.5z
			"/>
	</g>
	<g>
		<polygon class="st0" points="777.5,57.9 777.5,31.8 657.9,31.8 657.9,259.7 777.5,259.7 777.5,233.5 687.5,233.5 687.5,158.8 
			751.3,158.8 751.3,132.6 687.5,132.6 687.5,57.9 		"/>
	</g>
	<g>
		<polygon class="st0" points="1366.4,57.9 1366.4,31.8 1246.9,31.8 1246.9,259.7 1366.4,259.7 1366.4,233.5 1276.4,233.5 
			1276.4,158.8 1340.1,158.8 1340.1,132.6 1276.4,132.6 1276.4,57.9 		"/>
	</g>
	<g>
		<rect x="1622.3" y="31.9" class="st0" width="30.1" height="227.8"/>
	</g>
	<g>
		<polygon class="st0" points="2138.8,31.9 2138.8,208.1 1984.9,31.9 1966.3,31.9 1966.3,259.7 1996.3,259.7 1996.3,81.8 
			2151.5,259.7 2168.9,259.7 2168.9,31.9 		"/>
	</g>
	<path class="st0" d="M1540.7,158.4c-6.1-5.8-13.4-11-21.6-15.4c-8-4.3-16.3-8.5-24.5-12.5c-6.8-3.3-13.4-6.7-19.8-10
		c-6.2-3.3-11.6-6.9-16.2-10.7c-4.4-3.7-7.8-7.9-10.1-12.5c-2.2-4.4-2.9-9.3-1.9-15.1c0.9-5.6,2.9-10.1,5.9-13.4
		c3.1-3.4,7-6.1,11.5-7.9c4.6-1.8,9.8-2.9,15.4-3.2c0.7,0,2.3-0.1,2.3-0.1c1.2,0,2.3,0.1,3.4,0.1c2.7,0.1,5.4,0.3,8.1,0.6
		c1,0.1,2.1,0.2,3.1,0.4c1,0.2,1.9,0.4,2.8,0.6c2.3,0.4,4.5,1,6.6,1.6c0.1,0,0.3,0.1,0.4,0.1c14,4.2,23.5,12.3,29.4,22.5l17.6-22.6
		c-4.6-5.7-10.5-10.9-17.9-15.5c-8.9-5.5-20.5-9.5-34.6-11.7c-10.6-1.7-20.7-2.1-29.9-1.1c-9.3,1-17.7,3.3-24.9,6.9
		c-7.3,3.7-13.5,8.7-18.2,15.1c-4.8,6.4-7.9,14.1-9.4,23.2c-1.7,10.9-0.8,20.4,2.6,28.4c3.4,7.9,8.3,14.9,14.7,20.9
		c6.3,5.9,13.6,11.2,21.8,15.7c8,4.4,16.3,8.6,24.5,12.4c6.3,3,12.7,6.2,19,9.6c6.1,3.3,11.5,6.8,16.1,10.6
		c4.4,3.7,7.8,7.8,10.2,12.2c2.2,4.3,2.9,9.1,2,14.7c-1.1,7-3.4,12.8-6.9,17.2c-3.5,4.4-7.8,7.8-12.8,10.1
		c-5.1,2.3-11.8,3.8-18.2,4.2c-3.4,0.2-11.2,0.1-11.2,0.1v0c0,0-8.7-0.5-20.8-4c-8.5-2.9-17.3-8.1-25-17.1l-15.8,20.8
		c5.8,5.7,12.6,10.7,20.1,14.7c9.1,4.9,19.1,8.2,29.4,9.9c11.3,1.8,22.1,2.1,32,1c10-1.1,19.2-3.9,27.2-8.1c8-4.3,14.8-10.1,20-17.4
		c5.2-7.3,8.7-16.4,10.4-26.9c1.7-10.6,0.8-20-2.5-27.8C1551.7,171.1,1546.9,164.2,1540.7,158.4z"/>
	<path class="st0" d="M1853,159v26h26v33c-13,9.8-30.9,15.5-49.4,15.5c-48.5,0-87.6-39.3-87.6-87.8c0-48.5,39.3-87.8,87.8-87.8
		c19.9,0,38.2,6.6,52.9,17.8l16.1-20.9c-19.1-14.5-43-23-68.8-23c-62.9,0-114,51-114,113.9s51.1,113.9,114,113.9c29.2,0,56-11,76-29
		V159H1853z"/>
</g>
</svg>
